<svg width="1920" height="1080" viewBox="0 0 1920 1080" fill="none" xmlns="http://www.w3.org/2000/svg">
<mask id="mask0_1809_670" style="mask-type:luminance" maskUnits="userSpaceOnUse" x="0" y="0" width="1920" height="1080">
<path d="M1920 0H0V1080H1920V0Z" fill="white"/>
</mask>
<g mask="url(#mask0_1809_670)">
<path d="M791.1 623.3C791.1 604.4 775.6 589 756.7 589H709.9C709.9 602.7 721.1 614 734.9 614H756.8C762 614 766.2 618.2 766.2 623.4C766.2 628.6 762 632.8 756.8 632.8H710V676.5C710 690.2 721.2 701.5 735 701.5V660.7L768.4 694C778.1 703.8 793.9 703.8 803.7 694L766.1 656.5C780.1 652.3 791.1 638.9 791.1 623.3Z" fill="black"/>
</g>
<mask id="mask1_1809_670" style="mask-type:luminance" maskUnits="userSpaceOnUse" x="0" y="0" width="1920" height="1080">
<path d="M1920 0H0V1080H1920V0Z" fill="white"/>
</mask>
<g mask="url(#mask1_1809_670)">
<path d="M858.7 588.9C827.6 588.9 802.5 614 802.5 645.1C802.5 676.2 827.6 701.3 858.7 701.3C889.8 701.3 914.9 676.2 914.9 645.1C914.9 614.1 889.8 588.9 858.7 588.9ZM858.7 676.4C841.4 676.4 827.5 662.5 827.5 645.2C827.5 628 841.4 614 858.7 614C875.9 614 889.9 628.1 889.9 645.2C889.9 662.5 875.9 676.4 858.7 676.4Z" fill="#106AB4"/>
</g>
<mask id="mask2_1809_670" style="mask-type:luminance" maskUnits="userSpaceOnUse" x="0" y="0" width="1920" height="1080">
<path d="M1920 0H0V1080H1920V0Z" fill="white"/>
</mask>
<g mask="url(#mask2_1809_670)">
<path d="M1028.5 674.4C1033.8 665.8 1036.8 655.8 1036.8 645C1036.8 638.3 1035.6 631.9 1033.4 625.8C1025.6 604.3 1005 588.8 980.6 588.8C949.5 588.8 924.4 613.9 924.4 645C924.4 676.1 949.5 701.2 980.6 701.2C988.9 701.2 996.8 699.3 1004 696C1013.8 703.5 1027.9 702.9 1036.8 693.8L998 655.3C988.3 645.5 972.5 645.5 962.7 655.3L983.6 676.1C982.5 676.3 981.6 676.3 980.5 676.3C963.2 676.3 949.3 662.4 949.3 645.1C949.3 627.9 963.2 613.9 980.5 613.9C997.7 613.9 1011.7 628 1011.7 645.1L1011.4 650.7C1011.5 661.7 1018.6 671.1 1028.5 674.4Z" fill="black"/>
</g>
<mask id="mask3_1809_670" style="mask-type:luminance" maskUnits="userSpaceOnUse" x="0" y="0" width="1920" height="1080">
<path d="M1920 0H0V1080H1920V0Z" fill="white"/>
</mask>
<g mask="url(#mask3_1809_670)">
<path d="M1044.1 701.4H1081.3C1095 701.4 1106.3 690.2 1106.3 676.4H1085.2L1100.3 644.9L1123.1 690.7C1126.5 697.1 1135.1 701.5 1143.7 701.5H1156.5L1100.3 589.1L1044.1 701.4Z" fill="#106AB4"/>
</g>
<mask id="mask4_1809_670" style="mask-type:luminance" maskUnits="userSpaceOnUse" x="0" y="0" width="1920" height="1080">
<path d="M1920 0H0V1080H1920V0Z" fill="white"/>
</mask>
<g mask="url(#mask4_1809_670)">
<path d="M1186.4 600.5L1175 620.2H1174.8L1163.4 600.5C1159 593.5 1151.2 588.9 1142.5 588.9H1128L1162.5 648.5V676.3C1162.5 690 1173.6 701.3 1187.5 701.3V648.4L1221.9 588.9H1207.5C1198.6 588.9 1190.8 593.5 1186.4 600.5Z" fill="black"/>
</g>
<mask id="mask5_1809_670" style="mask-type:luminance" maskUnits="userSpaceOnUse" x="0" y="0" width="1920" height="1080">
<path d="M1920 0H0V1080H1920V0Z" fill="white"/>
</mask>
<g mask="url(#mask5_1809_670)">
<path d="M957.4 480.5C1029.2 480.5 1087.4 422.3 1087.4 350.5C1087.4 278.7 1029.2 220.5 957.4 220.5C885.6 220.5 827.4 278.7 827.4 350.5C827.4 422.3 885.6 480.5 957.4 480.5ZM957.6 256.7C1009.4 256.7 1051.4 298.7 1051.4 350.5C1051.4 402.3 1009.4 444.3 957.6 444.3C905.8 444.3 863.8 402.3 863.8 350.5C863.8 298.7 905.8 256.7 957.6 256.7Z" fill="black"/>
</g>
<mask id="mask6_1809_670" style="mask-type:luminance" maskUnits="userSpaceOnUse" x="0" y="0" width="1920" height="1080">
<path d="M1920 0H0V1080H1920V0Z" fill="white"/>
</mask>
<g mask="url(#mask6_1809_670)">
<path d="M960.001 481.2C983.901 523.5 1029.1 552 1081.1 552C1158 552 1220.3 489.7 1220.3 412.8C1220.3 376.4 1203.6 335.4 1183.3 318.5C1195.4 338.3 1201.1 361.8 1201.1 386.5C1201.1 463.4 1138.8 525.7 1061.9 525.7C1021.7 525.7 985.501 508.5 960.001 481.2C960.101 481 960.201 480.9 960.201 480.8C960.101 480.9 960.101 480.9 960.001 481C959.901 480.9 959.901 480.9 959.801 480.8C959.901 481 959.901 481.1 960.001 481.2Z" fill="#106AB4"/>
</g>
<path d="M959.6 481.2C935.6 523.5 890.1 552 837.9 552C760.7 552 698.1 489.7 698.1 412.8C698.1 376.4 714.9 335.4 735.3 318.5C723.2 338.3 717.4 361.8 717.4 386.5C717.4 463.4 780 525.7 857.2 525.7C897.7 525.7 934 508.5 959.6 481.2C959.5 481 959.4 480.9 959.4 480.8C959.5 480.9 959.5 480.9 959.6 481C959.7 480.9 959.7 480.9 959.8 480.8C959.8 481 959.7 481.1 959.6 481.2Z" fill="#106AB4"/>
<path d="M936.9 173C925.4 173 916.1 182.2 916.1 193.7C916.1 205.2 925.3 214.5 936.8 214.5C948.3 214.5 957.6 205.3 957.6 193.8C957.6 182.3 948.4 173 936.9 173Z" fill="#106AB4"/>
<path d="M992.8 173C981.3 173 972 182.2 972 193.7C972 205.2 981.2 214.5 992.7 214.5C1004.2 214.5 1013.5 205.3 1013.5 193.8C1013.5 182.3 1004.3 173 992.8 173Z" fill="#106AB4"/>
</svg>
