<svg width="20" height="21" viewBox="0 0 20 21" fill="none" xmlns="http://www.w3.org/2000/svg">
<path d="M6.6665 2.16699V4.66699" stroke="#536DFE" stroke-width="1.5" stroke-miterlimit="10" stroke-linecap="round" stroke-linejoin="round"/>
<path d="M13.3335 2.16699V4.66699" stroke="#536DFE" stroke-width="1.5" stroke-miterlimit="10" stroke-linecap="round" stroke-linejoin="round"/>
<path d="M13.3333 3.41699C16.1083 3.56699 17.5 4.62533 17.5 8.54199V13.692C17.5 17.1253 16.6667 18.842 12.5 18.842H7.5C3.33333 18.842 2.5 17.1253 2.5 13.692V8.54199C2.5 4.62533 3.89167 3.57533 6.66667 3.41699H13.3333Z" stroke="#536DFE" stroke-width="1.5" stroke-miterlimit="10" stroke-linecap="round" stroke-linejoin="round"/>
<path d="M17.2918 15.167H2.7085" stroke="#536DFE" stroke-width="1.5" stroke-miterlimit="10" stroke-linecap="round" stroke-linejoin="round"/>
<path d="M9.99984 7.375C8.97484 7.375 8.10817 7.93333 8.10817 9.01667C8.10817 9.53333 8.34984 9.925 8.7165 10.175C8.20817 10.475 7.9165 10.9583 7.9165 11.525C7.9165 12.5583 8.70817 13.2 9.99984 13.2C11.2832 13.2 12.0832 12.5583 12.0832 11.525C12.0832 10.9583 11.7915 10.4667 11.2748 10.175C11.6498 9.91667 11.8832 9.53333 11.8832 9.01667C11.8832 7.93333 11.0248 7.375 9.99984 7.375ZM9.99984 9.74167C9.5665 9.74167 9.24984 9.48333 9.24984 9.075C9.24984 8.65833 9.5665 8.41667 9.99984 8.41667C10.4332 8.41667 10.7498 8.65833 10.7498 9.075C10.7498 9.48333 10.4332 9.74167 9.99984 9.74167ZM9.99984 12.1667C9.44984 12.1667 9.04984 11.8917 9.04984 11.3917C9.04984 10.8917 9.44984 10.625 9.99984 10.625C10.5498 10.625 10.9498 10.9 10.9498 11.3917C10.9498 11.8917 10.5498 12.1667 9.99984 12.1667Z" fill="#536DFE"/>
</svg>
