<svg width="18" height="18" viewBox="0 0 18 18" fill="none" xmlns="http://www.w3.org/2000/svg">
<path d="M16.755 7.23586C16.524 7.0807 16.3155 6.89459 16.1351 6.68273C16.1486 6.38784 16.2079 6.09685 16.311 5.82023C16.5045 5.16398 16.746 4.34761 16.281 3.70898C15.8123 3.06511 14.9569 3.04373 14.2695 3.02611C13.9803 3.03769 13.6909 3.00661 13.4108 2.93386C13.2568 2.69226 13.1393 2.42931 13.062 2.15348C12.8325 1.50023 12.5468 0.687231 11.7817 0.438606C11.0392 0.197106 10.3729 0.655731 9.78525 1.05886C9.54906 1.24743 9.28387 1.39649 9 1.50023C8.71596 1.3966 8.45063 1.24754 8.21438 1.05886C7.6275 0.655356 6.96075 0.198231 6.21863 0.438981C5.45363 0.687606 5.16787 1.50023 4.93837 2.15348C4.86111 2.42794 4.74479 2.68987 4.593 2.93123C4.31194 3.00622 4.02114 3.03821 3.7305 3.02611C3.04312 3.04373 2.18775 3.06548 1.71938 3.70936C1.25437 4.34836 1.4955 5.16436 1.68938 5.82061C1.79122 6.09582 1.85102 6.38482 1.86675 6.67786C1.68697 6.89274 1.47734 7.08077 1.24425 7.23623C0.69 7.65886 0 8.18536 0 9.00023C0 9.81511 0.69 10.3416 1.245 10.7646C1.47595 10.9198 1.68452 11.1059 1.86488 11.3177C1.85142 11.6126 1.79208 11.9036 1.689 12.1802C1.4955 12.8365 1.254 13.6529 1.719 14.2915C2.18775 14.935 3.04312 14.9567 3.7305 14.9744C4.01973 14.9628 4.30908 14.9939 4.58925 15.0666C4.74317 15.3082 4.86068 15.5712 4.938 15.847C5.16788 16.5002 5.45325 17.3132 6.21863 17.5619C6.35417 17.6065 6.49593 17.6292 6.63862 17.6294C7.21462 17.6294 7.74038 17.2675 8.21513 16.9416C8.4512 16.7531 8.71626 16.604 9 16.5002C9.2839 16.6039 9.5491 16.753 9.78525 16.9416C10.3729 17.3451 11.0392 17.8019 11.7817 17.5619C12.5468 17.3132 12.8325 16.5006 13.062 15.8474C13.1392 15.5729 13.2553 15.311 13.407 15.0696C13.6881 14.9946 13.9789 14.9626 14.2695 14.9747C14.9569 14.9571 15.8126 14.9354 16.281 14.2915C16.746 13.6525 16.5049 12.8365 16.311 12.1802C16.2092 11.905 16.1494 11.616 16.1336 11.323C16.3133 11.1081 16.5228 10.9201 16.7557 10.7646C17.31 10.3416 18 9.81511 18 9.00023C18 8.18536 17.31 7.65886 16.755 7.23586ZM12.3428 7.65586L8.59275 11.4059C8.4521 11.5465 8.26137 11.6254 8.0625 11.6254C7.86363 11.6254 7.6729 11.5465 7.53225 11.4059L5.65725 9.53086C5.58757 9.46122 5.53228 9.37855 5.49455 9.28755C5.45682 9.19655 5.43738 9.09901 5.43735 9.0005C5.43731 8.90199 5.45668 8.80443 5.49435 8.71341C5.53201 8.62238 5.58724 8.53966 5.65688 8.46998C5.72651 8.4003 5.80919 8.34501 5.90018 8.30728C5.99118 8.26955 6.08872 8.25011 6.18723 8.25008C6.28575 8.25004 6.3833 8.26941 6.47433 8.30708C6.56535 8.34475 6.64807 8.39997 6.71775 8.46961L8.0625 9.81473L11.2823 6.59498C11.3514 6.52335 11.4342 6.46621 11.5257 6.4269C11.6172 6.3876 11.7156 6.36691 11.8152 6.36604C11.9148 6.36518 12.0135 6.38415 12.1057 6.42187C12.1979 6.45958 12.2816 6.51527 12.352 6.58569C12.4225 6.6561 12.4782 6.73984 12.5159 6.83202C12.5536 6.92419 12.5726 7.02295 12.5717 7.12253C12.5708 7.22212 12.5501 7.32053 12.5108 7.41203C12.4715 7.50354 12.4144 7.5863 12.3428 7.65548V7.65586Z" fill="#2BC48A"/>
</svg>
