<svg width="54" height="60" viewBox="0 0 54 60" fill="none" xmlns="http://www.w3.org/2000/svg">
<g filter="url(#filter0_d_502_8300)">
<path d="M8.37656 49.6924C6.68051 51.8716 7.05813 55.0556 9.4873 56.3688C12.2253 57.849 15.1849 58.9014 18.2636 59.4798C22.9866 60.367 27.8532 60.113 32.4582 58.7389C37.0632 57.3649 41.2732 54.9105 44.7378 51.5802C48.2023 48.2498 50.821 44.14 52.3758 39.5929C53.9307 35.0457 54.3766 30.1929 53.6766 25.4386C52.9765 20.6842 51.1507 16.166 48.3511 12.26C45.5516 8.35404 41.8594 5.17345 37.582 2.98311C34.7937 1.55533 31.8094 0.575248 28.7383 0.0691002C26.0137 -0.379954 23.7656 1.90625 23.7722 4.66766L23.8288 28.1098C23.8315 29.2264 23.4604 30.3117 22.7746 31.1928L8.37656 49.6924Z" fill="url(#paint0_linear_502_8300)"/>
</g>
<defs>
<filter id="filter0_d_502_8300" x="0.334473" y="-5.9873" width="70.6641" height="83.9858" filterUnits="userSpaceOnUse" color-interpolation-filters="sRGB">
<feFlood flood-opacity="0" result="BackgroundImageFix"/>
<feColorMatrix in="SourceAlpha" type="matrix" values="0 0 0 0 0 0 0 0 0 0 0 0 0 0 0 0 0 0 127 0" result="hardAlpha"/>
<feOffset dx="5" dy="6"/>
<feGaussianBlur stdDeviation="6"/>
<feColorMatrix type="matrix" values="0 0 0 0 0.655833 0 0 0 0 0.795139 0 0 0 0 1 0 0 0 0.11 0"/>
<feBlend mode="normal" in2="BackgroundImageFix" result="effect1_dropShadow_502_8300"/>
<feBlend mode="normal" in="SourceGraphic" in2="effect1_dropShadow_502_8300" result="shape"/>
</filter>
<linearGradient id="paint0_linear_502_8300" x1="42.0154" y1="5.75931" x2="4.96062" y2="53.3697" gradientUnits="userSpaceOnUse">
<stop stop-color="#536DFE"/>
<stop offset="0.65625" stop-color="#94A3F9"/>
<stop offset="1" stop-color="#BDC6FD"/>
</linearGradient>
</defs>
</svg>
